<svg id="visual" viewBox="0 0 960 540" width="960" height="540" xmlns="http://www.w3.org/2000/svg" xmlns:xlink="http://www.w3.org/1999/xlink" version="1.1"><path d="M0 28L13.3 32.5C26.7 37 53.3 46 80 54.2C106.7 62.3 133.3 69.7 160 64.3C186.7 59 213.3 41 240 38.2C266.7 35.3 293.3 47.7 320 48.5C346.7 49.3 373.3 38.7 400 40.5C426.7 42.3 453.3 56.7 480 57.5C506.7 58.3 533.3 45.7 560 46.7C586.7 47.7 613.3 62.3 640 67.8C666.7 73.3 693.3 69.7 720 65.2C746.7 60.7 773.3 55.3 800 52.7C826.7 50 853.3 50 880 48.2C906.7 46.3 933.3 42.7 946.7 40.8L960 39L960 0L946.7 0C933.3 0 906.7 0 880 0C853.3 0 826.7 0 800 0C773.3 0 746.7 0 720 0C693.3 0 666.7 0 640 0C613.3 0 586.7 0 560 0C533.3 0 506.7 0 480 0C453.3 0 426.7 0 400 0C373.3 0 346.7 0 320 0C293.3 0 266.7 0 240 0C213.3 0 186.7 0 160 0C133.3 0 106.7 0 80 0C53.3 0 26.7 0 13.3 0L0 0Z" fill="#101018"></path><path d="M0 255L13.3 242.3C26.7 229.7 53.3 204.3 80 189.8C106.7 175.3 133.3 171.7 160 155.5C186.7 139.3 213.3 110.7 240 111.7C266.7 112.7 293.3 143.3 320 146C346.7 148.7 373.3 123.3 400 115.2C426.7 107 453.3 116 480 127.7C506.7 139.3 533.3 153.7 560 160C586.7 166.3 613.3 164.7 640 181C666.7 197.3 693.3 231.7 720 242.5C746.7 253.3 773.3 240.7 800 241.5C826.7 242.3 853.3 256.7 880 234.2C906.7 211.7 933.3 152.3 946.7 122.7L960 93L960 37L946.7 38.8C933.3 40.7 906.7 44.3 880 46.2C853.3 48 826.7 48 800 50.7C773.3 53.3 746.7 58.7 720 63.2C693.3 67.7 666.7 71.3 640 65.8C613.3 60.3 586.7 45.7 560 44.7C533.3 43.7 506.7 56.3 480 55.5C453.3 54.7 426.7 40.3 400 38.5C373.3 36.7 346.7 47.3 320 46.5C293.3 45.7 266.7 33.3 240 36.2C213.3 39 186.7 57 160 62.3C133.3 67.7 106.7 60.3 80 52.2C53.3 44 26.7 35 13.3 30.5L0 26Z" fill="#13131c"></path><path d="M0 357L13.3 359.8C26.7 362.7 53.3 368.3 80 374.7C106.7 381 133.3 388 160 371.7C186.7 355.3 213.3 315.7 240 304.8C266.7 294 293.3 312 320 312C346.7 312 373.3 294 400 288.7C426.7 283.3 453.3 290.7 480 290.7C506.7 290.7 533.3 283.3 560 290.5C586.7 297.7 613.3 319.3 640 337.3C666.7 355.3 693.3 369.7 720 371.5C746.7 373.3 773.3 362.7 800 356.5C826.7 350.3 853.3 348.7 880 331.5C906.7 314.3 933.3 281.7 946.7 265.3L960 249L960 91L946.7 120.7C933.3 150.3 906.7 209.7 880 232.2C853.3 254.7 826.7 240.3 800 239.5C773.3 238.7 746.7 251.3 720 240.5C693.3 229.7 666.7 195.3 640 179C613.3 162.7 586.7 164.3 560 158C533.3 151.7 506.7 137.3 480 125.7C453.3 114 426.7 105 400 113.2C373.3 121.3 346.7 146.7 320 144C293.3 141.3 266.7 110.7 240 109.7C213.3 108.7 186.7 137.3 160 153.5C133.3 169.7 106.7 173.3 80 187.8C53.3 202.3 26.7 227.7 13.3 240.3L0 253Z" fill="#16161f"></path><path d="M0 433L13.3 430.3C26.7 427.7 53.3 422.3 80 423.2C106.7 424 133.3 431 160 422C186.7 413 213.3 388 240 378.2C266.7 368.3 293.3 373.7 320 374.5C346.7 375.3 373.3 371.7 400 369C426.7 366.3 453.3 364.7 480 369.2C506.7 373.7 533.3 384.3 560 387C586.7 389.7 613.3 384.3 640 388C666.7 391.7 693.3 404.3 720 407C746.7 409.7 773.3 402.3 800 405.8C826.7 409.3 853.3 423.7 880 420.2C906.7 416.7 933.3 395.3 946.7 384.7L960 374L960 247L946.7 263.3C933.3 279.7 906.7 312.3 880 329.5C853.3 346.7 826.7 348.3 800 354.5C773.3 360.7 746.7 371.3 720 369.5C693.3 367.7 666.7 353.3 640 335.3C613.3 317.3 586.7 295.7 560 288.5C533.3 281.3 506.7 288.7 480 288.7C453.3 288.7 426.7 281.3 400 286.7C373.3 292 346.7 310 320 310C293.3 310 266.7 292 240 302.8C213.3 313.7 186.7 353.3 160 369.7C133.3 386 106.7 379 80 372.7C53.3 366.3 26.7 360.7 13.3 357.8L0 355Z" fill="#181823"></path><path d="M0 460L13.3 460C26.7 460 53.3 460 80 463.7C106.7 467.3 133.3 474.7 160 463C186.7 451.3 213.3 420.7 240 409.8C266.7 399 293.3 408 320 412.5C346.7 417 373.3 417 400 417C426.7 417 453.3 417 480 422.3C506.7 427.7 533.3 438.3 560 434.7C586.7 431 613.3 413 640 413C666.7 413 693.3 431 720 434.7C746.7 438.3 773.3 427.7 800 431.3C826.7 435 853.3 453 880 451.2C906.7 449.3 933.3 427.7 946.7 416.8L960 406L960 372L946.7 382.7C933.3 393.3 906.7 414.7 880 418.2C853.3 421.7 826.7 407.3 800 403.8C773.3 400.3 746.7 407.7 720 405C693.3 402.3 666.7 389.7 640 386C613.3 382.3 586.7 387.7 560 385C533.3 382.3 506.7 371.7 480 367.2C453.3 362.7 426.7 364.3 400 367C373.3 369.7 346.7 373.3 320 372.5C293.3 371.7 266.7 366.3 240 376.2C213.3 386 186.7 411 160 420C133.3 429 106.7 422 80 421.2C53.3 420.3 26.7 425.7 13.3 428.3L0 431Z" fill="#1a1a27"></path><path d="M0 525L13.3 525C26.7 525 53.3 525 80 523.2C106.7 521.3 133.3 517.7 160 507.7C186.7 497.7 213.3 481.3 240 478.7C266.7 476 293.3 487 320 490.7C346.7 494.3 373.3 490.7 400 487C426.7 483.3 453.3 479.7 480 480.5C506.7 481.3 533.3 486.7 560 484.8C586.7 483 613.3 474 640 477.7C666.7 481.3 693.3 497.7 720 501.3C746.7 505 773.3 496 800 496.8C826.7 497.7 853.3 508.3 880 506.5C906.7 504.7 933.3 490.3 946.7 483.2L960 476L960 404L946.7 414.8C933.3 425.7 906.7 447.3 880 449.2C853.3 451 826.7 433 800 429.3C773.3 425.7 746.7 436.3 720 432.7C693.3 429 666.7 411 640 411C613.3 411 586.7 429 560 432.7C533.3 436.3 506.7 425.7 480 420.3C453.3 415 426.7 415 400 415C373.3 415 346.7 415 320 410.5C293.3 406 266.7 397 240 407.8C213.3 418.7 186.7 449.3 160 461C133.3 472.7 106.7 465.3 80 461.7C53.3 458 26.7 458 13.3 458L0 458Z" fill="#1d1d2a"></path><path d="M0 541L13.3 541C26.7 541 53.3 541 80 541C106.7 541 133.3 541 160 541C186.7 541 213.3 541 240 541C266.7 541 293.3 541 320 541C346.7 541 373.3 541 400 541C426.7 541 453.3 541 480 541C506.7 541 533.3 541 560 541C586.7 541 613.3 541 640 541C666.7 541 693.3 541 720 541C746.7 541 773.3 541 800 541C826.7 541 853.3 541 880 541C906.7 541 933.3 541 946.7 541L960 541L960 474L946.7 481.2C933.3 488.3 906.7 502.7 880 504.5C853.3 506.3 826.7 495.7 800 494.8C773.3 494 746.7 503 720 499.3C693.3 495.7 666.7 479.3 640 475.7C613.3 472 586.7 481 560 482.8C533.3 484.7 506.7 479.3 480 478.5C453.3 477.7 426.7 481.3 400 485C373.3 488.7 346.7 492.3 320 488.7C293.3 485 266.7 474 240 476.7C213.3 479.3 186.7 495.7 160 505.7C133.3 515.7 106.7 519.3 80 521.2C53.3 523 26.7 523 13.3 523L0 523Z" fill="#1f1f2e"></path></svg>